<svg xmlns="http://www.w3.org/2000/svg" width="21.108" height="28.143" viewBox="0 0 21.108 28.143">
  <g id="password_1_" data-name="password (1)" transform="translate(-64)">
    <g id="Group_33" data-name="Group 33" transform="translate(64)">
      <g id="Group_32" data-name="Group 32">
        <path id="Path_59" data-name="Path 59" d="M214.293,281.564l-.37,3.326a.586.586,0,0,0,.583.651h2.345a.586.586,0,0,0,.583-.651l-.37-3.326a2.32,2.32,0,0,0,.96-1.886,2.345,2.345,0,0,0-4.691,0A2.32,2.32,0,0,0,214.293,281.564Zm1.386-3.059a1.169,1.169,0,0,1,.506,2.224.587.587,0,0,0-.327.593l.339,3.047h-1.035l.339-3.047a.587.587,0,0,0-.327-.593,1.169,1.169,0,0,1,.506-2.224Z" transform="translate(-205.125 -262.089)"/>
        <path id="Path_60" data-name="Path 60" d="M84.521,10.554H82.762V8.208a8.209,8.209,0,0,0-16.417,0v2.345H64.586A.586.586,0,0,0,64,11.14V25.8a2.348,2.348,0,0,0,2.345,2.345H82.762A2.348,2.348,0,0,0,85.108,25.8V11.14A.586.586,0,0,0,84.521,10.554Zm-17-2.345a7.036,7.036,0,1,1,14.072,0v2.345H80.417V8.208a5.863,5.863,0,1,0-11.726,0v2.345H67.518Zm11.726,0v2.345H69.863V8.208a4.691,4.691,0,1,1,9.381,0ZM83.935,25.8a1.174,1.174,0,0,1-1.173,1.173H66.345A1.174,1.174,0,0,1,65.173,25.8V11.726H83.935Z" transform="translate(-64 0)"/>
      </g>
    </g>
  </g>
</svg>
