<svg xmlns="http://www.w3.org/2000/svg" width="19.164" height="21.805" viewBox="0 0 19.164 21.805">
  <g id="Group_38" data-name="Group 38" transform="translate(-750.393 -455)">
    <g id="user_3_" data-name="user (3)" transform="translate(719.393 455)">
      <g id="Group_35" data-name="Group 35" transform="translate(34.833)">
        <g id="Group_34" data-name="Group 34">
          <path id="Path_61" data-name="Path 61" d="M126.749,0A5.749,5.749,0,1,0,132.5,5.749,5.756,5.756,0,0,0,126.749,0Zm0,10.221a4.472,4.472,0,1,1,4.472-4.472A4.477,4.477,0,0,1,126.749,10.221Z" transform="translate(-121)"/>
        </g>
      </g>
      <g id="Group_37" data-name="Group 37" transform="translate(31 12.776)">
        <g id="Group_36" data-name="Group 36">
          <path id="Path_62" data-name="Path 62" d="M47.735,302.478A8.2,8.2,0,0,0,41.86,300H39.3a8.2,8.2,0,0,0-5.876,2.478A8.379,8.379,0,0,0,31,308.39a.639.639,0,0,0,.639.639H49.525a.639.639,0,0,0,.639-.639A8.379,8.379,0,0,0,47.735,302.478Zm-15.43,5.272a7.07,7.07,0,0,1,7-6.473H41.86a7.07,7.07,0,0,1,7,6.473Z" transform="translate(-31 -300)"/>
        </g>
      </g>
    </g>
  </g>
</svg>
